# xmcd
#
# Track frame offsets:
#	150
#	16783
#	37065
#	52213
#	65879
#	75806
#	88221
#	103565
#	125292
#	134219
#	153983
#	173561
#	186992
#	203162
#	216402
#	232382
#	249897
#	269154
#
# Disc length: 3791 seconds
#
# Revision: 1
# Processed by: cddbd v1.5.2PL0 Copyright (c) Steve Scherf et al.
# Submitted via: audiograbber 1.81.03
#
DISCID=0f0ecd12
DTITLE=Various Artist - Beaut Ute Anthems 2011 CD2
DYEAR=2011
DGENRE=Country
TTITLE0=Children Collide - Jelly Legs
TTITLE1=Shihad - Engage
TTITLE2=Gyroscope - Baby I'm Getting Better
TTITLE3=Wagons - Drive All Night Till Dawn
TTITLE4=Snowdroppers, The - Do The Stomp
TTITLE5=Rumjacks, The - Roll Away Alone
TTITLE6=Graveyard Train - Mummy
TTITLE7=Death Cab For Cutie - You Are A Tourist
TTITLE8=Peabody - No New Riffs
TTITLE9=Sister Jane - Great Highway
TTITLE10=Ataris, The - Boys Of Summer
TTITLE11=Finabah - Devoted To Drama
TTITLE12=Short Stack - Planets
TTITLE13=Steve Forde - How Long
TTITLE14=Nickleback - Burn It To The Ground
TTITLE15=Stone Sour Mission - Statement
TTITLE16=Alter Bridge - Isolation
TTITLE17=Black Stone Cherry - White Trash Millionaire
EXTD=Original Freedb entry backwards
EXTT0=
EXTT1=
EXTT2=
EXTT3=
EXTT4=
EXTT5=
EXTT6=
EXTT7=
EXTT8=
EXTT9=
EXTT10=
EXTT11=
EXTT12=
EXTT13=
EXTT14=
EXTT15=
EXTT16=
EXTT17=
PLAYORDER=
